<?xml version="1.0" encoding="UTF-8" standalone="no"?>
<!-- Created with Inkscape (http://www.inkscape.org/) -->

<svg
   xmlns:dc="http://purl.org/dc/elements/1.1/"
   xmlns:cc="http://creativecommons.org/ns#"
   xmlns:rdf="http://www.w3.org/1999/02/22-rdf-syntax-ns#"
   xmlns:svg="http://www.w3.org/2000/svg"
   xmlns="http://www.w3.org/2000/svg"
   xmlns:sodipodi="http://sodipodi.sourceforge.net/DTD/sodipodi-0.dtd"
   xmlns:inkscape="http://www.inkscape.org/namespaces/inkscape"
   width="64px"
   height="64px"
   id="svg2985"
   version="1.1"
   inkscape:version="0.48.2 r9819"
   sodipodi:docname="icon_zPE.svg">
  <defs
     id="defs2987" />
  <sodipodi:namedview
     id="base"
     pagecolor="#ffffff"
     bordercolor="#666666"
     borderopacity="1.0"
     inkscape:pageopacity="0"
     inkscape:pageshadow="2"
     inkscape:zoom="5.5"
     inkscape:cx="32"
     inkscape:cy="29.609725"
     inkscape:current-layer="layer1"
     showgrid="true"
     inkscape:document-units="px"
     inkscape:grid-bbox="true"
     inkscape:window-width="1280"
     inkscape:window-height="717"
     inkscape:window-x="0"
     inkscape:window-y="32"
     inkscape:window-maximized="1" />
  <metadata
     id="metadata2990">
    <rdf:RDF>
      <cc:Work
         rdf:about="">
        <dc:format>image/svg+xml</dc:format>
        <dc:type
           rdf:resource="http://purl.org/dc/dcmitype/StillImage" />
      </cc:Work>
    </rdf:RDF>
  </metadata>
  <g
     id="layer1"
     inkscape:label="Layer 1"
     inkscape:groupmode="layer">
    <g
       transform="matrix(2.4006472,0,0,2.4006472,32.08454,-13.042584)"
       style="font-size:18px;font-style:normal;font-variant:normal;font-weight:bold;font-stretch:normal;text-align:start;line-height:125%;letter-spacing:0px;word-spacing:0px;writing-mode:lr-tb;text-anchor:start;fill:#000000;fill-opacity:0;stroke:none;font-family:Times New Roman;-inkscape-font-specification:'Times New Roman, Bold'"
       id="flowRoot3020" />
    <g
       style="font-size:88px;font-style:normal;font-variant:normal;font-weight:bold;font-stretch:normal;text-align:start;line-height:125%;letter-spacing:0px;word-spacing:0px;writing-mode:lr-tb;text-anchor:start;fill:#000000;fill-opacity:1;stroke:none;font-family:Droid Serif;-inkscape-font-specification:Droid Serif Bold"
       id="text3028">
      <path
         d="m 55.717685,5.1029892 -33.085938,52.9804688 18.992188,0 c 1.804647,5e-6 3.279906,-0.243484 4.425781,-0.730469 1.145789,-0.515618 2.048132,-1.188795 2.707031,-2.019531 0.687454,-0.83072 1.174432,-1.761709 1.460938,-2.792969 0.315056,-1.059884 0.5299,-2.148424 0.644531,-3.265625 l 0.429687,-3.953125 6.359375,0 -0.429687,18.132813 -50.6171875,0 0,-4.382813 32.9999995,-53.0664061 -17.316406,0 C 20.912979,6.0053904 19.78147,6.1915881 18.893466,6.5639267 18.00543,6.936379 17.289285,7.4806493 16.745028,8.1967392 16.22939,8.8842938 15.842672,9.729345 15.584872,10.731895 c -0.229179,0.974011 -0.401054,2.062551 -0.515625,3.265625 l -0.472656,4.769532 -6.3164063,0 0.4296875,-18.1328128 47.0078128,0 0,4.46875"
         style=""
         id="path2994" />
    </g>
    <g
       style="font-size:56px;font-style:normal;font-variant:normal;font-weight:bold;font-stretch:normal;text-align:start;line-height:125%;letter-spacing:0px;word-spacing:0px;writing-mode:lr-tb;text-anchor:start;fill:#ff0000;fill-opacity:1;stroke:none;font-family:Times New Roman;-inkscape-font-specification:'Times New Roman, Bold'"
       id="text13">
      <path
         d="m 14.030185,29.75639 0,10.28125 c -1.5e-5,2.005212 0.118474,3.272138 0.355468,3.800781 0.255193,0.510419 0.692693,0.920575 1.3125,1.230469 0.638004,0.309897 1.795555,0.464844 3.472657,0.464843 l 0,1.011719 -18.83984412,0 0,-1.011719 c 1.71353852,1e-6 2.87108942,-0.154946 3.47265622,-0.464843 0.6197862,-0.328124 1.0481712,-0.747394 1.2851563,-1.257813 0.2552019,-0.510413 0.3828059,-1.768225 0.3828125,-3.773437 l 0,-24.0625 C 5.4715843,13.969964 5.3439803,12.712153 5.0887784,12.201702 4.8517933,11.673091 4.4234083,11.253821 3.8036221,10.94389 3.1838262,10.63403 2.0262753,10.479082 0.33096588,10.479046 l 0,-1.0117189 16.16015612,0 c 5.322894,3.71e-5 9.1419,0.9479529 11.457031,2.8437499 2.315073,1.895866 3.472624,4.265655 3.472657,7.109375 -3.3e-5,2.406275 -0.747428,4.466169 -2.242188,6.179688 -1.49482,1.713561 -3.554714,2.880226 -6.179687,3.5 -1.768252,0.437517 -4.757832,0.656266 -8.96875,0.65625 m 0,-18.15625 0,16.023437 c 0.601546,0.03648 1.057275,0.05471 1.367187,0.05469 2.22394,1.8e-5 3.93748,-0.656231 5.140625,-1.96875 1.203102,-1.330707 1.804664,-3.381487 1.804688,-6.152344 -2.4e-5,-2.752575 -0.601586,-4.766895 -1.804688,-6.042969 -1.203145,-1.276007 -2.998716,-1.914027 -5.386719,-1.914062 l -1.121093,0"
         style=""
         id="path2997" />
    </g>
    <g
       style="font-size:50px;font-style:normal;font-variant:normal;font-weight:bold;font-stretch:normal;text-align:start;line-height:125%;letter-spacing:0px;word-spacing:0px;writing-mode:lr-tb;text-anchor:start;fill:#008800;fill-opacity:1;stroke:none;font-family:Lucida Bright;-inkscape-font-specification:Lucida Bright Bold"
       id="text3800">
      <path
         d="m 63.886009,55.272728 -27.563476,0 0,-2.270508 0.463867,-0.02441 c 1.546221,-0.09765 2.482092,-0.260414 2.807617,-0.488281 0.341792,-0.244138 0.512691,-0.870765 0.512695,-1.879883 l 0.122071,-2.416992 0,-21.99707 -0.122071,-2.392579 c -4e-6,-1.025358 -0.154627,-1.643847 -0.463867,-1.855468 -0.309249,-0.227831 -1.261396,-0.406868 -2.856445,-0.53711 l -0.463867,-0.02441 0,-2.246094 26.513672,0 0,6.469727 -3.613282,0 -0.04883,-0.463867 c -0.04885,-0.830047 -0.07327,-1.318328 -0.07324,-1.464844 -2.4e-5,-0.846322 -0.105818,-1.38343 -0.317383,-1.611328 -0.211612,-0.244107 -0.732444,-0.390591 -1.5625,-0.439453 l -1.68457,-0.09766 -7.763672,0 0,13.720703 5.029297,0 2.392578,-0.04883 c 0.911437,2e-5 1.367166,-0.406881 1.367187,-1.220704 -2.1e-5,-0.09763 0.01626,-0.480121 0.04883,-1.14746 l 0.04883,-0.463868 2.563476,0 0,7.836914 -2.563476,0 -0.04883,-0.439453 c -0.03257,-0.504541 -0.04885,-0.830062 -0.04883,-0.976562 -2.1e-5,-0.895165 -0.480164,-1.342756 -1.440429,-1.342774 l -2.294922,-0.09766 -5.200195,0 0,10.839844 0.09766,2.124023 c 0.06509,1.041671 0.23599,1.692712 0.512695,1.953125 0.27668,0.26042 0.960273,0.390628 2.050781,0.390625 l 2.172852,0.04883 3.027344,0 2.783203,-0.07324 c 1.139299,3e-6 1.757788,-0.455726 1.855469,-1.367187 l 0.12207,-2.319336 0.02441,-0.463867 3.613281,0 0,6.787109"
         style=""
         id="path3000" />
    </g>
  </g>
</svg>
